<svg xmlns="http://www.w3.org/2000/svg" viewBox="0 0 200 240" data-char="pip"><ellipse class="shadow" cx="100" cy="228" rx="52" ry="8" fill="#000" opacity=".12"/><g class="leg-l" style="transform-origin:86px 188px"><rect x="78" y="186" width="16" height="30" rx="7" fill="#3f4d66"/><ellipse cx="82" cy="219" rx="14" ry="8" fill="#5a4632" stroke="#3a2e2e" stroke-width="2.5"/></g><g class="leg-r" style="transform-origin:114px 188px"><rect x="106" y="186" width="16" height="30" rx="7" fill="#3f4d66"/><ellipse cx="118" cy="219" rx="14" ry="8" fill="#5a4632" stroke="#3a2e2e" stroke-width="2.5"/></g><g class="arm-l" style="transform-origin:70px 144px"><path d="M70,144 Q56,168 58,190" fill="none" stroke="#ffffff" stroke-width="15" stroke-linecap="round"/></g><g class="arm-r" style="transform-origin:130px 144px"><path d="M130,144 Q156,132 152,106" fill="none" stroke="#ffffff" stroke-width="15" stroke-linecap="round"/></g><rect x="90" y="112" width="20" height="26" rx="8" fill="#f2c49b" stroke="#3a2e2e" stroke-width="2.5"/><path d="M68 196 C64 148 76 130 100 130 C124 130 136 148 132 196 Z" fill="#ffffff" stroke="#3a2e2e" stroke-width="3"/><path d="M100 130 L84 146 L100 162 L116 146 Z" fill="#e8503a" stroke="#3a2e2e" stroke-width="2.5"/><circle cx="114" cy="164" r="4" fill="#d8dee6"/><circle cx="86" cy="164" r="4" fill="#d8dee6"/><circle cx="114" cy="180" r="4" fill="#d8dee6"/><circle cx="86" cy="180" r="4" fill="#d8dee6"/><g class="arm-l" style="transform-origin:70px 144px"><circle cx="58" cy="190" r="10" fill="#f2c49b" stroke="#3a2e2e" stroke-width="2.5"/></g><g class="arm-r" style="transform-origin:130px 144px"><circle cx="152" cy="106" r="10" fill="#f2c49b" stroke="#3a2e2e" stroke-width="2.5"/></g><circle cx="100" cy="80" r="46" fill="#f2c49b" stroke="#3a2e2e" stroke-width="3"/><ellipse cx="52" cy="86" rx="8" ry="11" fill="#f2c49b" stroke="#3a2e2e" stroke-width="2.5"/><ellipse cx="148" cy="86" rx="8" ry="11" fill="#f2c49b" stroke="#3a2e2e" stroke-width="2.5"/><path d="M56 70 Q64 32 100 32 Q136 32 144 70 Q130 46 100 46 Q70 46 56 70 Z" fill="#6b4423"/><g class="face" style="transform-origin:100px 80px"><g class="blush"><ellipse cx="64" cy="95" rx="9" ry="6" fill="#ff8fa3" opacity=".5"/><ellipse cx="136" cy="95" rx="9" ry="6" fill="#ff8fa3" opacity=".5"/></g><g class="eye" style="transform-origin:82px 80px"><ellipse cx="82" cy="80" rx="11" ry="11.9" fill="#fff" stroke="#3a2e2e" stroke-width="2.5"/><g class="pupil"><circle cx="82.6" cy="80.3" r="6.8" fill="#5b7bb5"/><circle cx="82.6" cy="80.3" r="4.2" fill="#1a1a1a"/><circle cx="79.9" cy="77.4" r="2.4" fill="#fff"/></g></g><g class="eye" style="transform-origin:118px 80px"><ellipse cx="118" cy="80" rx="11" ry="11.9" fill="#fff" stroke="#3a2e2e" stroke-width="2.5"/><g class="pupil"><circle cx="118.6" cy="80.3" r="6.8" fill="#5b7bb5"/><circle cx="118.6" cy="80.3" r="4.2" fill="#1a1a1a"/><circle cx="115.9" cy="77.4" r="2.4" fill="#fff"/></g></g><g class="brows" style="transform-origin:100.0px 60px"><g fill="none" stroke="#3a2e2e" stroke-width="4" stroke-linecap="round"><path d="M73,63 Q82,55 91,63"/><path d="M109,63 Q118,55 127,63"/></g></g><g class="mouth" style="transform-origin:100px 106px"><clipPath id="pip-mpip"><path d="M81,106 C91,132 109,132 119,106 Z"/></clipPath><path d="M81,106 C91,132 109,132 119,106 Z" fill="#6e1a2b" stroke="#3a2e2e" stroke-width="2.5"/><g clip-path="url(#pip-mpip)"><rect x="81" y="104" width="38" height="8" fill="#fff"/></g></g></g><path d="M62 44 Q52 4 80 10 Q92 -8 120 10 Q148 4 138 44 Z" fill="#ffffff" stroke="#3a2e2e" stroke-width="3"/><rect x="60" y="40" width="80" height="20" rx="8" fill="#ffffff" stroke="#3a2e2e" stroke-width="3"/><path d="M64 46 h72" stroke="#3a2e2e" stroke-width="2" opacity=".25"/></svg>